<?xml version="1.0" standalone="no"?>
<!DOCTYPE svg PUBLIC "-//W3C//DTD SVG 20010904//EN"
 "http://www.w3.org/TR/2001/REC-SVG-20010904/DTD/svg10.dtd">
<svg version="1.0" xmlns="http://www.w3.org/2000/svg"
 width="50.000000pt" height="30.000000pt" viewBox="0 0 350.000000 250.000000"
 preserveAspectRatio="xMidYMid meet">

<g transform="translate(-45.000000,246.000000) scale(0.100000,-0.100000)"
fill="rgb(49, 211, 122)" stroke="none">
<path d="M2410 1953 c-708 -422 -1407 -825 -1398 -805 3 8 131 248 361 677 80
149 143 271 142 273 -2 2 -102 0 -223 -4 l-219 -7 -18 -41 c-79 -183 -723
-1452 -806 -1590 -17 -26 -29 -50 -27 -52 7 -7 1553 816 1758 936 30 17 70 41
88 52 l33 21 -49 -99 c-96 -192 -482 -983 -482 -989 0 -3 107 -5 238 -5 l238
0 97 248 c53 136 162 416 243 622 80 206 159 409 174 450 16 41 67 174 114
294 48 120 85 220 83 222 -1 2 -158 -90 -347 -203z"/>
<path d="M3051 1439 c-330 -249 -601 -456 -601 -460 0 -5 5 -9 11 -9 14 0 349
-138 599 -247 312 -136 682 -311 818 -386 54 -30 84 -42 87 -34 33 98 115 365
115 373 0 5 -172 59 -382 119 -357 101 -722 210 -741 222 -7 4 92 74 731 517
l273 189 -148 83 c-82 46 -151 84 -154 84 -4 0 -277 -203 -608 -451z"/>
</g>
</svg>
